<?xml version="1.0" encoding="UTF-8" standalone="no"?>
<svg
   xmlns:dc="http://purl.org/dc/elements/1.1/"
   xmlns:cc="http://creativecommons.org/ns#"
   xmlns:rdf="http://www.w3.org/1999/02/22-rdf-syntax-ns#"
   xmlns:svg="http://www.w3.org/2000/svg"
   xmlns="http://www.w3.org/2000/svg"
   viewBox="0 0 338.41333 356.89334"
   height="356.89334"
   width="338.41333"
   xml:space="preserve"
   id="svg2"
   version="1.1"><metadata
     id="metadata8"><rdf:RDF><cc:Work
         rdf:about=""><dc:format>image/svg+xml</dc:format><dc:type
           rdf:resource="http://purl.org/dc/dcmitype/StillImage" /></cc:Work></rdf:RDF></metadata><defs
     id="defs6" /><g
     transform="matrix(1.3333333,0,0,-1.3333333,0,356.89333)"
     id="g10"><g
       transform="scale(0.1)"
       id="g12"><path
         id="path14"
         style="fill:#040606;fill-opacity:1;fill-rule:nonzero;stroke:none"
         d="m 718.059,2070.14 c -1.664,-20.67 -2.715,-41.44 -2.2,-62.21 0.293,-12.03 1.121,-24.05 1.344,-36.09 0.266,-14.55 1.867,-29 3.457,-43.42 2.137,-19.37 5.129,-38.63 8.906,-57.78 6.442,-32.62 15.153,-64.58 26.52,-95.81 29.519,-81.1 74.699,-152.47 133.945,-215.07 32.344,-34.18 67.84,-64.74 105.879,-92.38 19.48,-14.16 39.53,-27.45 60.06,-40.05 2.11,-1.3 4.16,-2.71 6.21,-4.1 1.13,-0.78 1.31,-2.53 0.36,-2.99 -1.49,-0.72 -2.94,-1.57 -4.49,-2.12 -34.07,-12.03 -68.839,-21.5 -104.37,-28.09 -18.352,-3.41 -36.789,-6.23 -55.36,-8.27 -18.574,-2.03 -37.129,-3.9 -55.812,-4.56 -10.781,-0.38 -21.547,-1.11 -32.32,-1.77 -0.481,-0.03 -1.008,-0.83 -1.325,-1.38 -0.109,-0.2 0.25,-0.97 0.528,-1.05 5.941,-1.83 11.855,-3.76 17.867,-5.34 26.097,-6.83 52.445,-12.35 79.246,-15.73 16.476,-2.07 32.941,-4.05 49.551,-4.57 6.222,-0.2 12.445,-0.49 18.668,-0.66 6.636,-0.19 13.293,-0.67 19.91,-0.37 20.307,0.91 40.647,1.05 60.907,3.35 16.9,1.92 33.76,4 50.51,7 5.3,0.95 10.61,1.89 15.92,2.82 1.58,0.28 3.2,-1.13 3.26,-2.81 0.02,-0.83 0.05,-1.66 -0.01,-2.49 -0.69,-10.42 2.74,-19.57 8.68,-27.94 0.97,-1.35 1.93,-2.7 2.91,-4.04 12.52,-17.07 25.04,-34.14 37.56,-51.2 1.23,-1.68 2.41,-3.39 3.73,-4.98 0.78,-0.95 1.78,-1.73 2.71,-2.55 1.03,-0.92 3.8,-0.9 4.6,0.07 1.83,2.25 3.68,4.48 5.39,6.82 12.5,17.08 25.06,34.12 37.42,51.3 10.99,15.29 9.85,9.8 12.13,30.36 0.04,0.41 0.1,0.82 0.16,1.23 0.51,3.36 2.69,5.3 5.9,5.06 2.9,-0.22 5.81,-0.43 8.65,-0.96 12.24,-2.27 24.51,-4.33 36.89,-5.7 11.54,-1.28 23.06,-2.82 34.64,-3.71 12.41,-0.95 24.86,-1.4 37.31,-1.86 22.85,-0.84 45.66,0.67 68.41,2.38 16.52,1.24 32.99,3.46 49.38,6.18 18.02,2.99 35.88,6.65 53.63,10.82 7.65,1.8 15.3,3.85 22.42,7.35 0.31,0.15 0.44,0.66 0.63,1.02 0.39,0.75 0.06,1.49 -1.02,1.61 -4.11,0.42 -8.24,0.82 -12.36,1.03 -18.23,0.94 -36.48,1.22 -54.7,2.97 -24.79,2.39 -49.43,5.59 -73.94,10.01 -33.53,6.03 -66.38,14.6 -98.68,25.37 -5.1,1.71 -10.12,3.67 -15.18,5.54 -0.32,0.11 -0.84,0.54 -0.8,0.71 0.19,0.77 0.32,1.81 0.87,2.21 2.34,1.69 4.78,3.25 7.26,4.73 24.23,14.51 47.77,30.05 70.45,46.88 43.16,32.05 82.57,68.13 117.32,109.21 55.96,66.16 96.34,140.83 121.81,223.59 13.58,44.12 22.89,89.12 27.89,135.03 2.3,21.06 3.68,42.17 3.89,63.35 0.25,23.67 -1.49,47.26 -3.82,70.82 -2.33,23.57 -6.09,46.91 -11.16,70 -16.36,74.36 -44.14,144.2 -84.06,209.11 -27.75,45.14 -60.47,86.28 -99.14,122.6 -3.91,3.68 -8.17,6.99 -12.28,10.47 -1.93,3.32 -4.79,5.62 -8.2,7.29 0,0 0,0 0,-0.01 0,0.01 0,0.01 0,0.01 -0.19,0.93 -0.81,1.51 -1.54,1.14 -0.45,-0.23 -0.91,-1.3 -0.72,-1.68 0.45,-0.95 1.27,-1.73 1.94,-2.57 0,0 0,0.01 0,0.01 0,0 0,-0.01 0,-0.01 1.37,-2.68 2.37,-5.6 5.02,-7.4 0,0 0,-0.01 0,-0.01 2.16,-4 4.21,-8.06 6.48,-12 30.35,-52.68 54.94,-107.86 72.28,-166.19 7.92,-26.65 14.42,-53.64 19.01,-81.08 2.05,-12.29 3.85,-24.58 5.37,-36.94 1.88,-15.24 3.34,-30.52 4.03,-45.86 1.16,-25.72 1.13,-51.47 -0.06,-77.18 -0.6,-12.85 -1.54,-25.7 -3,-38.47 -1.73,-15.24 -4.07,-30.42 -6.33,-45.59 -5.09,-34.13 -13.35,-67.52 -23.94,-100.32 -24.91,-77.27 -61.76,-148.42 -110.1,-213.64 -25.28,-34.1 -53.39,-65.68 -84.55,-94.52 -17.39,-16.1 -35.71,-31.03 -55.03,-44.75 -3.05,-2.16 -6.13,-4.28 -9.26,-6.31 -1.03,-0.67 -2.49,-1.1 -3.42,-0.15 -0.76,0.77 -1.1,2.09 -1.3,3.22 -0.21,1.21 -0.08,2.49 -0.04,3.73 1.33,37.33 2.66,74.66 3.98,111.99 0.03,0.83 0.08,1.66 0.12,2.49 1.29,28.61 2.61,57.22 3.86,85.82 1.19,27.37 2.3,54.74 3.44,82.11 0.02,0.41 0.04,0.83 0.06,1.24 1.25,24.04 2.55,48.08 3.7,72.11 0.91,19.07 1.71,38.15 2.39,57.23 0.95,26.54 2.12,53.09 2.55,79.65 0.92,57.69 1.72,115.39 2,173.08 0.25,50.22 -0.34,100.44 -0.5,150.67 -0.13,39.43 -0.16,78.86 -0.25,118.3 -0.01,3.73 -0.07,7.47 -0.2,11.2 -0.2,5.41 -2.89,9.42 -7.28,12.36 -1.72,1.15 -3.56,2.13 -5.38,3.12 -25.79,14.21 -47.69,33.01 -66,56.03 -1.28,1.61 -2.73,3.11 -4.18,4.58 -1.48,1.5 -4.06,1.43 -5.51,-0.2 -3.6,-4.03 -7.12,-8.11 -10.67,-12.17 -16.24,-18.59 -34.5,-34.72 -56.53,-46.23 -1.84,-0.96 -3.64,-2 -5.37,-3.15 -5.04,-3.36 -8.32,-7.89 -9.62,-13.95 -0.97,-4.52 -1.12,-9.04 -1.08,-13.61 0.23,-24.89 0.58,-49.8 0.63,-74.7 0.12,-63.51 0.18,-127.02 0.13,-190.53 -0.01,-22.41 -0.35,-44.82 -0.68,-67.23 -0.44,-30.73 0.73,-61.43 1.53,-92.13 0.85,-33.19 2.2,-66.37 3.33,-99.56 0.03,-0.83 0.09,-1.65 0.12,-2.49 1.32,-30.26 2.76,-60.53 3.92,-90.8 1.28,-33.18 2.31,-66.37 3.45,-99.56 0.04,-1.24 0.11,-2.48 0.16,-3.72 1.37,-31.52 2.79,-63.02 4.09,-94.54 1.15,-27.78 2.17,-55.57 3.25,-83.36 0.07,-1.66 0.2,-3.31 0.28,-4.97 0.5,-9.95 1.02,-19.89 1.47,-29.85 0.07,-1.63 -0.21,-3.28 -0.35,-4.93 -0.12,-1.33 -2.72,-2.5 -3.95,-1.71 -2.78,1.8 -5.58,3.58 -8.27,5.52 -25.29,18.24 -49.03,38.36 -71.3,60.18 -41.727,40.87 -77.532,86.46 -107.778,136.41 -44.684,73.8 -75.567,152.99 -92.625,237.57 -4.434,21.97 -7.852,44.07 -10.242,66.37 -2.84,26.44 -4.532,52.92 -4.367,79.51 0.093,15.77 0.636,31.51 1.75,47.27 1.582,22.37 4.171,44.58 7.675,66.73 4.16,26.24 9.934,52.11 17.012,77.72 16.441,59.47 40.301,115.85 70.672,169.52 2.648,4.68 5.187,9.43 7.777,14.16 0,0 0,0 0,0 0.008,-0.01 0.016,-0.01 0.02,-0.02 2.75,1.9 3.855,4.87 5.097,7.75 0.532,0.55 1.329,1.03 1.524,1.68 0.172,0.55 -0.293,1.34 -0.598,1.98 -0.062,0.13 -0.785,0.15 -0.969,-0.02 -1.117,-1.07 -2.168,-2.21 -3.242,-3.33 -1.957,-1.38 -3.933,-2.74 -4.703,-5.2 -0.008,0 -0.015,0 -0.027,0 -1.278,-1.05 -2.641,-2.02 -3.817,-3.17 -32.113,-31.44 -61.507,-65.19 -87.441,-101.93 -65.914,-93.38 -103.18,-197.14 -112.359,-310.96" /><path
         id="path16"
         style="fill:#040606;fill-opacity:1;fill-rule:nonzero;stroke:none"
         d="m 475.422,1852.43 c 26.016,-102.63 76.922,-190.93 152.566,-264.96 26.192,-25.63 54.981,-47.98 86.09,-67.34 3.492,-2.17 7.266,-3.9 10.906,-5.83 0.2,-1.3 0.954,-1.98 2.246,-1.73 1.094,0.2 1.368,1.43 0.442,2.58 -0.645,0.81 -1.606,1.37 -2.434,2.04 -0.011,0.01 -0.011,0.02 -0.023,0.03 -2.277,3.46 -4.52,6.94 -6.828,10.38 -28.946,43.16 -54.059,88.42 -74.34,136.29 -16.688,39.4 -29.973,79.9 -39.219,121.71 -5.469,24.72 -9.855,49.58 -12.504,74.77 -2.082,19.81 -3.922,39.63 -4.211,59.54 -0.343,23.65 -0.152,47.27 1.696,70.89 1.519,19.45 3.464,38.84 6.261,58.11 3.516,24.2 8.27,48.19 14.106,71.96 16.922,68.95 43.465,133.93 80.113,194.74 37.969,63.02 84.961,118.59 139.328,168 11.352,10.32 23.121,20.17 34.699,30.24 v 0 c 1.039,0.6 2.196,1.07 3.063,1.85 0.492,0.45 0.559,1.43 0.672,2.18 0.023,0.14 -0.598,0.5 -0.957,0.57 -2.969,0.57 -5.684,0.16 -7.875,-2.14 0,-0.01 0,-0.01 -0.004,-0.01 -1.629,-0.28 -3.305,-0.43 -4.887,-0.88 -15.933,-4.59 -31.687,-9.7 -47.117,-15.8 -66.805,-26.44 -125.82,-64.99 -177.602,-114.63 -64.011,-61.37 -110.832,-133.87 -139.863,-217.73 -13.336,-38.52 -22.301,-78.05 -26.879,-118.58 -2.097,-18.57 -3.594,-37.16 -3.957,-55.83 -0.469,-24.09 1.235,-48.06 3.965,-72 2.641,-23.11 6.84,-45.89 12.547,-68.42" /><path
         id="path18"
         style="fill:#040606;fill-opacity:1;fill-rule:nonzero;stroke:none"
         d="m 1001.57,2604.05 c 19.37,-44.31 68.51,-71.09 120.33,-58.91 19.55,4.6 35.96,14.59 50.06,28.65 2.93,2.92 5.68,6.03 8.54,9.04 0.8,0.85 2.57,1.07 3.38,0.42 2.27,-1.81 4.52,-3.64 6.74,-5.5 10.51,-8.82 21.66,-16.7 33.95,-22.9 14.62,-7.37 29.95,-12.09 46.44,-12.59 16.87,-0.26 32.69,2.6 49.75,13.1 33.67,20.72 50.6,51.55 53.2,90.51 0.58,8.67 -0.78,17.41 -4.62,25.46 -0.7,1.47 -1.71,2.85 -2.82,4.05 -0.29,0.31 -1.92,0.04 -2.17,-0.4 -1.43,-2.5 -2.71,-5.09 -3.89,-7.72 -5.5,-12.23 -12.81,-23.22 -22.44,-32.6 -19,-18.5 -41.91,-28.01 -68.32,-28.42 -15.54,-0.24 -30.38,3.62 -44.34,10.59 -13.18,6.57 -24.39,15.65 -34.1,26.65 -2.46,2.79 -4.88,5.63 -7.44,8.33 -0.38,0.4 -1.82,0.48 -2.12,0.13 -2.2,-2.47 -4.23,-5.08 -6.32,-7.66 -23.73,-29.38 -63.26,-43.15 -96.53,-36.4 -16.64,3.37 -31.52,10.01 -44.54,20.83 -11.97,9.97 -21.21,22.1 -28.14,36.02 -1.11,2.22 -2.08,4.51 -3.15,6.76 -0.71,1.49 -1.46,2.96 -2.24,4.4 -0.18,0.34 -0.74,0.84 -0.87,0.77 -0.715,-0.37 -1.672,-0.74 -1.969,-1.38 -4.808,-10.4 -6.265,-21.48 -5.605,-32.73 0.789,-13.32 3.852,-26.18 9.234,-38.5" /><path
         id="path20"
         style="fill:#040606;fill-opacity:1;fill-rule:nonzero;stroke:none"
         d="m 931.102,723.48 c 17.945,3.141 33.66,11.461 48.023,22.45 14.016,10.73 25.205,23.992 34.735,38.75 16.91,26.218 27.47,54.82 31.77,85.66 1.2,8.59 1.09,17.379 1.51,26.082 0.08,1.648 -0.2,3.308 -0.31,4.969 -0.5,7.578 -3.89,13.621 -10.4,17.429 -4.99,2.91 -10.39,5.121 -15.65,7.571 -3,1.39 -6.12,2.539 -9.11,3.949 -2.06,0.98 -2.98,4.512 -1.89,6.57 0.38,0.731 0.74,1.488 1.2,2.168 8.45,12.5 18.33,23.582 31.37,31.524 12.05,7.339 24.06,14.75 36.15,22.007 5.01,3 9.8,6.27 14.06,10.251 9.27,8.66 16.16,18.83 19.65,31.18 1.74,6.19 0.09,11.45 -3.65,16.3 -0.75,0.98 -1.61,1.91 -2.55,2.71 -10.08,8.6 -21.91,13.3 -34.86,15.26 -5.87,0.88 -10.56,-1.7 -13.97,-6.41 -1.69,-2.34 -3.15,-4.89 -4.42,-7.49 -5.08,-10.45 -10.06,-20.94 -15.04,-31.43 -0.53,-1.12 -1,-2.3 -1.27,-3.5 -0.75,-3.35 -0.66,-6.6 1.56,-9.48 0.51,-0.66 1,-1.33 1.52,-1.98 2.8,-3.52 2.33,-7.05 -0.71,-9.961 -2.1,-2 -4.34,-3.86 -6.44,-5.868 -3.3,-3.14 -6.68,-6.23 -9.81,-9.55 -13.12,-13.961 -24.382,-29.391 -35.14,-45.172 -7.907,-11.61 -11.641,-24.629 -11.871,-38.707 -0.219,-13.641 5.945,-22.953 18.398,-28.192 3.434,-1.449 6.973,-2.648 10.473,-3.941 3.89,-1.438 7.82,-2.789 11.67,-4.301 1.92,-0.738 3.81,-1.637 5.58,-2.687 3.91,-2.313 5.46,-6.45 3.94,-10.731 -2.51,-7.082 -5.67,-13.879 -10.92,-19.39 -5.44,-5.692 -10.89,-11.43 -16.809,-16.61 -7.825,-6.859 -16.637,-12.351 -26.2,-16.59 -22.828,-10.129 -46.527,-11.968 -70.621,-6.3 -16.257,3.82 -26.632,14.66 -31.367,30.66 -2.992,10.109 -3.277,20.379 -1.324,30.789 3.84,20.453 9.937,40.242 17.441,59.609 5.547,14.332 11.778,28.352 19.086,41.871 1.586,2.942 3.141,5.879 3.391,9.27 0.125,1.722 -0.68,3.16 -2.082,4.25 -1.074,0.832 -3.504,0.922 -4.699,0.019 -1.313,-0.976 -2.7,-1.957 -3.703,-3.226 -1.278,-1.614 -2.313,-3.442 -3.27,-5.274 -8.074,-15.437 -16.434,-30.738 -24.07,-46.398 -9.293,-19.039 -16.664,-38.871 -22.243,-59.34 -4.82,-17.66 -7.945,-35.609 -8.523,-53.941 -0.461,-8.368 0.52,-16.61 2.508,-24.7 5.211,-21.078 17.344,-36.558 37.558,-45.039 16.528,-6.941 33.836,-8.148 51.329,-5.09" /><path
         id="path22"
         style="fill:#040606;fill-opacity:1;fill-rule:nonzero;stroke:none"
         d="m 1633.98,734.059 c 32.07,19.742 55.83,46.703 70.07,81.75 9.47,23.293 14.21,47.613 15.63,73.941 0,3.27 0.22,7.84 -0.06,12.379 -0.36,6.133 -3.28,11.141 -8.03,14.891 -2.56,2.039 -5.52,3.671 -8.49,5.089 -3.73,1.782 -7.74,2.993 -11.47,4.782 -3.34,1.609 -6.61,3.468 -9.63,5.597 -3.49,2.453 -4.44,7.352 -2.56,11.192 0.55,1.109 1.16,2.199 1.88,3.211 7.21,10.211 15.25,19.679 24.74,27.859 11.93,10.289 25.62,16.75 41.29,18.84 1.64,0.219 3.32,0.238 4.94,0.558 7.8,1.563 13.77,5.532 17.04,13.042 0.16,0.38 0.39,0.73 0.55,1.11 3.78,9.21 7.6,18.4 11.29,27.64 0.61,1.51 0.86,3.22 0.96,4.86 0.15,2.59 -0.71,4.95 -2.7,6.67 -2.99,2.58 -6.37,3.96 -10.32,2.29 -2.67,-1.12 -5.37,-2.23 -7.88,-3.65 -30.34,-17.16 -56.72,-38.95 -77.91,-66.79 -11.63,-15.269 -21.09,-31.8 -28.67,-49.398 -5.18,-12.012 -7.44,-24.551 -5.91,-37.672 0.76,-6.551 3.84,-11.738 8.71,-15.988 3.47,-3.043 7.39,-5.383 11.66,-7.071 4.23,-1.671 8.56,-3.121 12.85,-4.652 3.51,-1.258 7.12,-2.289 10.52,-3.769 6.21,-2.7 8.05,-6.899 5.72,-13.02 -1.33,-3.48 -2.89,-6.898 -4.7,-10.148 -4.07,-7.321 -9.33,-13.793 -15.58,-19.301 -25.79,-22.742 -55.69,-33.891 -90.29,-31.27 -8.79,0.668 -17.14,3.09 -24.8,7.5 -11.44,6.59 -18.45,16.399 -20.95,29.418 -1.57,8.211 -1.94,16.391 -0.79,24.75 0.96,7.012 2.07,13.981 4.06,20.731 3.4,11.531 6.97,23.019 10.89,34.379 5.44,15.703 12.27,30.82 19.75,45.652 2.05,4.059 3.83,8.258 5.47,12.5 0.34,0.91 -0.28,2.398 -0.85,3.379 -0.77,1.289 -3.24,1.922 -4.44,1.34 -1.1,-0.539 -2.43,-1 -3.13,-1.91 -2.52,-3.27 -5.18,-6.532 -7.13,-10.141 -7.1,-13.141 -14.25,-26.27 -20.78,-39.688 -9.81,-20.171 -17.85,-41.05 -23.79,-62.73 -4.41,-16.07 -6.73,-32.473 -8.2,-49.012 -0.85,-9.59 0.23,-19.109 2.23,-28.461 1.74,-8.136 4.83,-15.847 9.35,-22.929 9.15,-14.309 21.88,-23.438 38.46,-27.469 10.23,-2.488 20.55,-2.559 30.93,-2.27 14.41,0.391 27.84,4.461 40.07,11.989" /><path
         id="path24"
         style="fill:#040606;fill-opacity:1;fill-rule:nonzero;stroke:none"
         d="m 2158.29,977.52 c 3.2,-0.758 6.53,-1.149 9.82,-1.399 6.64,-0.5 12.18,2.039 16.69,6.801 6.14,6.488 10.01,14.207 11.66,22.968 0.38,1.98 0.23,4.16 -0.13,6.17 -0.99,5.43 -3.54,10.12 -7.26,14.21 -3.34,3.68 -6.75,7.31 -9.81,11.22 -3.78,4.84 -3.09,8.09 2.04,11.26 2.47,1.52 5.01,2.92 7.56,4.31 14.23,7.74 29.02,14.25 44.07,20.18 5.41,2.14 10.69,4.48 15.69,7.48 7.57,4.56 13.96,10.41 19.11,17.55 1.68,2.33 3.17,4.91 4.15,7.59 2.29,6.27 -0.28,11.68 -6.35,14.15 -0.77,0.31 -1.56,0.55 -2.35,0.81 -10.6,3.59 -21.29,6.98 -32.29,9.06 -7.71,1.45 -15.6,1.98 -21.68,2.71 -5.92,-0.64 -10.04,-1.05 -14.16,-1.53 -11.27,-1.34 -20.38,-6.65 -27.54,-15.33 -5.87,-7.11 -10.02,-15.2 -13.11,-23.85 -0.28,-0.77 -0.38,-1.6 -0.52,-2.41 -0.24,-1.47 1.44,-4.34 3.06,-5.07 1.57,-0.71 3.21,-0.86 4.76,0.01 1.08,0.61 2.16,1.26 3.1,2.06 2.83,2.42 5.69,4.83 8.38,7.42 6.1,5.89 13.28,8.2 21.64,6.8 5.72,-0.96 11.43,-1.95 17.14,-2.98 0.29,-0.05 0.72,-0.49 0.73,-0.76 0.04,-0.77 0.19,-1.82 -0.22,-2.29 -3.32,-3.83 -7.81,-6.08 -12.11,-8.53 -5.04,-2.88 -10.24,-5.48 -15.2,-8.49 -19.16,-11.61 -34.86,-26.64 -45.73,-46.44 -4.4,-8.02 -9.67,-15.46 -15.27,-22.68 -7.11,-9.18 -14.15,-18.418 -21.23,-27.629 -0.25,-0.321 -0.55,-0.61 -0.81,-0.93 -0.98,-1.16 -3.09,-1.27 -4.48,-0.199 -3.29,2.519 -6.43,5.269 -9.87,7.558 -9.5,6.34 -22.49,6.418 -32.5,-1.5 -4.29,-3.39 -7.69,-7.519 -10.95,-11.832 -4.5,-5.957 -9.08,-11.847 -13.75,-17.679 -3.39,-4.239 -7.34,-7.879 -12.32,-10.258 -1.34,-0.641 -3.74,-0.242 -4.47,0.937 -1.96,3.172 -3.81,6.422 -5.83,9.551 -2.72,4.223 -6.05,7.902 -10.25,10.723 -7.21,4.84 -14.71,5.386 -22.3,1.09 -2.5,-1.411 -4.91,-3.192 -6.89,-5.25 -2.85,-2.981 -5.45,-6.25 -7.83,-9.633 -5.97,-8.52 -10.74,-17.731 -14.58,-27.391 -1.68,-4.226 -3.34,-8.519 -4.46,-12.918 -3.31,-12.969 1.1,-24.351 14.79,-30.512 4.53,-2.039 9.38,-3.269 14.48,-3.187 2.89,0.039 5.78,-0.121 8.67,-0.223 1.04,-0.039 1.91,-1.847 1.35,-2.847 -1.01,-1.801 -1.93,-3.672 -3.11,-5.36 -5.26,-7.543 -11.69,-14.019 -18.73,-19.859 -5.75,-4.774 -11.74,-9.223 -17.56,-13.91 -5.81,-4.684 -11.56,-9.434 -17.27,-14.242 -1.58,-1.329 -2.92,-2.942 -4.35,-4.442 -1.01,-1.078 -1.38,-2.918 -0.67,-3.328 0.66,-0.371 1.36,-0.91 2.06,-0.93 9.61,-0.332 19.05,1.071 28.32,3.399 16.44,4.133 29.29,13.23 37.85,28.121 7.44,12.949 14.75,25.93 18.88,40.449 2.88,10.121 8.21,19.07 15.1,26.93 9.02,10.293 18.33,20.34 27.71,30.301 5.46,5.8 14.18,5.492 20.05,-0.27 3.69,-3.621 5.61,-8.18 5.96,-13.328 0.37,-5.402 0.01,-10.75 -1.07,-16.082 -1.22,-6.09 -2.11,-12.25 -3.02,-18.391 -0.35,-2.371 1.4,-5.289 3.42,-6.16 2.45,-1.051 4.93,-0.937 7.11,0.539 1.34,0.91 2.65,2.121 3.42,3.512 1.6,2.89 2.99,5.922 4.18,9 2.98,7.73 5.65,15.59 8.7,23.289 3.83,9.652 8.36,18.961 14.19,27.609 3.72,5.532 7.81,10.75 12.84,15.141 9.6,8.41 20.52,12.199 33.35,9.141" /><path
         id="path26"
         style="fill:#040606;fill-opacity:1;fill-rule:nonzero;stroke:none"
         d="m 2098.43,320.121 c -1.58,0.899 -4.29,0.391 -5.73,-1.121 -1.7,-1.801 -3.33,-3.68 -4.92,-5.578 -5.91,-7.082 -12.89,-12.902 -20.93,-17.383 -4.7,-2.609 -9.52,-5.027 -14.4,-7.289 -20.04,-9.27 -41.13,-15.238 -62.68,-19.719 -27.68,-5.75 -55.76,-8.16 -83.92,-9.429 -19.88,-0.891 -39.76,-0.782 -59.64,1.199 -13.23,1.308 -26.33,3.109 -39.32,5.777 -7.3,1.492 -14.52,3.363 -21.27,6.711 -9.05,4.5 -15.2,11.27 -17.27,21.422 -0.67,3.238 -1.44,6.488 -2.54,9.59 -0.71,2 -2.56,3.179 -4.7,3.668 -1.96,0.441 -5.23,-1.239 -6.25,-3.219 -0.38,-0.73 -0.82,-1.449 -1.05,-2.23 -0.7,-2.391 -1.52,-4.758 -1.94,-7.2 -2.24,-13.082 -3.75,-26.25 -4.99,-39.449 -0.43,-4.531 -0.52,-9.121 -0.36,-13.672 0.46,-13.23 6.03,-23.898 16.55,-31.98 4.64,-3.559 9.74,-6.321 15.14,-8.481 10.06,-4.039 20.54,-6.566 31.3,-7.558 11.97,-1.11 23.95,-2.282 36.01,-1.91 5.81,0 11.61,-0.04 17.41,0.011 5.8,0.047 11.66,-0.242 17.4,0.379 12.36,1.34 24.78,1.871 37.14,3.488 22.64,2.973 44.99,7.153 66.96,13.301 17.98,5.039 35.41,11.653 52.15,19.981 16.62,8.269 30.56,19.82 41.78,34.59 10.39,13.671 17.69,28.949 22.92,45.25 0.5,1.558 0.81,3.23 0.87,4.859 0.11,2.75 -1.42,4.68 -3.72,5.992" /><path
         id="path28"
         style="fill:#040606;fill-opacity:1;fill-rule:nonzero;stroke:none"
         d="m 303.863,412.191 c -1.398,-0.859 -2.98,-1.66 -3.972,-2.89 -1.809,-2.242 -3.453,-4.68 -4.797,-7.242 -3.34,-6.329 -8.098,-10.387 -15.559,-10.68 -2.637,-0.098 -4.683,-1.481 -6.336,-3.488 -0.527,-0.641 -1.105,-1.243 -1.672,-1.84 -6.297,-6.742 -14.211,-9.821 -23.285,-10.242 -3.316,-0.149 -6.652,-0.039 -9.949,-0.34 -2.867,-0.27 -5.742,-0.77 -8.527,-1.489 -4.336,-1.109 -7.024,-4.082 -8.727,-8.171 -1.309,-3.137 -1.762,-6.387 -1.781,-9.719 -0.043,-8.719 -0.012,-17.43 -0.012,-26.141 -0.047,0 -0.094,0 -0.144,-0.008 0,-2.902 -0.008,-5.812 0,-8.711 0.027,-17.468 -1.442,-34.808 -4.829,-51.949 -4.519,-22.89 -14.113,-43.422 -29.992,-60.562 -28.097,-30.328 -62.945,-43.508 -104.1404,-39.188 -9.9648,1.039 -19.4297,4.219 -28.0781,9.481 -11.1289,6.769 -18.4805,16.429 -22.2109,28.886 -3.1641,10.582 -3.2539,21.313 -1.2227,32.024 1.4649,7.726 3.5391,15.34 5.457,22.976 3.0313,12.09 7.6407,23.653 11.9727,35.313 1.8789,5.051 3.8789,10.09 4.375,15.508 0.1445,1.601 -0.1602,3.281 -0.5039,4.871 -0.457,2.121 -4.707,3.422 -6.1797,1.859 -1.3906,-1.48 -2.8203,-3.051 -3.707,-4.84 -4.4219,-8.91 -8.7813,-17.859 -12.9649,-26.89 C 14.2852,261.102 4.94531,232.449 1.20703,202.09 0.136719,193.379 -0.414063,184.691 0.367188,176.02 1.80859,160.031 6.76172,145.141 16.5039,132.211 c 16.2031,-21.5 37.6289,-31.902 64.7695,-29.551 4.1289,0.36 8.2266,1.051 12.3438,1.578 25.8238,3.301 48.6018,13.352 68.0308,30.793 14.629,13.129 26.93,28.168 37.114,44.957 16.269,26.821 27.578,55.703 34.98,86.102 5.008,20.558 8.571,41.398 10.121,62.539 0.235,3.211 1.383,5.801 4.418,6.82 6.426,2.192 11.75,6.071 16.977,10.199 4.562,3.602 9.207,7.122 14.652,9.313 7.621,3.07 13.094,8.57 17.707,15.141 4.321,6.16 7.649,12.789 10.012,19.937 1.715,5.191 2.469,10.5 1.996,15.922 -0.137,1.59 -0.871,3.148 -1.48,4.648 -0.532,1.313 -3.157,2.27 -4.282,1.582" /><path
         id="path30"
         style="fill:#040606;fill-opacity:1;fill-rule:nonzero;stroke:none"
         d="m 1273.47,875.23 c 3.95,2.961 7.57,6.481 10.86,10.18 4.13,4.641 7.77,9.719 11.61,14.621 2.55,3.27 4.95,6.668 7.64,9.821 4.78,5.578 10.66,9.218 18.24,9.339 7.78,0.118 14.55,3.079 20.83,7.321 3.08,2.09 6.17,4.277 8.81,6.879 4.49,4.429 9.48,7.89 15.26,10.488 9.38,4.23 16.3,11.312 21.24,20.269 1.8,3.274 3.58,6.602 4.8,10.102 2.6,7.422 4.94,14.949 7.15,22.5 0.55,1.91 0.35,4.1 0.22,6.15 -0.15,2.39 -2.04,3.48 -3.97,4.32 -1.96,0.87 -4.47,0.41 -5.73,-1.07 -1.06,-1.25 -2.13,-2.55 -2.88,-4 -2.1,-4.041 -3.95,-8.22 -6.06,-12.259 -1.83,-3.5 -4.56,-5.93 -8.8,-5.879 -5.95,0.078 -10.21,-2.973 -13.77,-7.313 -2.1,-2.57 -4.02,-5.289 -6.18,-7.808 -4.19,-4.879 -9.5,-8.071 -15.84,-9.141 -2.81,-0.48 -5.8,-0.34 -8.67,-0.078 -6.67,0.617 -12.22,-1.711 -17.02,-6.094 -3.07,-2.789 -5.98,-5.75 -9.02,-8.566 -4.3,-3.981 -8.98,-7.461 -14.58,-9.321 -11.73,-3.89 -22.86,-3.062 -33.04,4.579 -6.94,5.218 -11.12,12.308 -13.32,20.492 -1.62,5.988 -2.91,12.078 -3.18,18.359 -0.41,9.527 -1.18,19.039 -1.69,28.569 -0.43,8.3 -0.35,16.58 0.6,24.86 1.22,10.72 2.17,21.46 3.08,32.21 0.16,1.99 -0.19,4.14 -0.78,6.07 -0.49,1.58 -1.86,2.67 -3.71,2.87 -1.79,0.19 -3.43,-0.32 -4.39,-1.71 -1.17,-1.68 -2.06,-3.6 -2.8,-5.52 -4.04,-10.44 -8.16,-20.86 -11.92,-31.4 -2.51,-7.02 -4.53,-14.22 -6.66,-21.37 -3.81,-12.83 -5.03,-26.04 -5.36,-39.329 -0.24,-9.543 -0.05,-19.082 -0.05,-25.449 -0.34,-16.453 -0.61,-29.731 -0.88,-43.012 -0.19,-9.238 -2.29,-18.121 -5.45,-26.699 -1.57,-4.25 -3.56,-8.473 -6.1,-12.199 -8.28,-12.114 -19.86,-17.063 -34.41,-14.692 -0.48,0.078 -1.25,1.328 -1.1,1.789 0.6,1.942 1.33,3.879 2.32,5.653 8.03,14.347 12.22,29.957 14.24,46.078 1.75,13.98 3.05,28.051 2.94,42.191 -0.09,11.207 0.13,22.41 0.19,33.617 0.09,17.872 1.27,35.652 4.5,53.252 0.45,2.44 0.79,4.92 0.99,7.4 0.09,1.2 -0.1,2.5 -0.48,3.66 -0.37,1.13 -0.98,2.22 -2.37,2.62 -1.73,0.51 -3.34,0.25 -4.67,-0.79 -0.94,-0.75 -1.73,-1.83 -2.29,-2.92 -1.89,-3.69 -3.78,-7.39 -5.43,-11.19 -10.92,-25 -16.46,-51.258 -17.67,-78.43 -1.06,-23.629 -1.74,-47.281 -2.61,-70.922 -0.1,-2.898 -0.11,-5.816 -0.46,-8.699 -1.19,-10.07 -3.95,-19.488 -11.48,-26.91 -1.45,-1.43 -2.68,-3.188 -3.59,-5.008 -0.7,-1.422 -1.27,-3.262 -1,-4.762 1.59,-8.789 5.18,-16.648 12.25,-22.437 6.44,-5.274 13.8,-7.16 22.12,-5.512 10.08,1.988 18.6,6.852 26.21,13.531 7.24,6.36 13.13,13.86 17.98,22.141 3.98,6.789 7.75,13.719 11.48,20.656 3.73,6.961 4.27,7.512 11.35,4.781 4.23,-1.629 8.76,-2.488 13.18,-3.539 10.84,-2.55 20.63,0.121 29.32,6.66" /><path
         id="path32"
         style="fill:#040606;fill-opacity:1;fill-rule:nonzero;stroke:none"
         d="m 1214.38,411.641 c -2.09,-2.551 -4.01,-5.25 -5.87,-7.961 -4.1,-6 -9.26,-10.7 -16.31,-12.801 -4.11,-1.219 -7.43,-3.25 -10.46,-6.32 -5.45,-5.559 -12.38,-8.2 -20.12,-8.637 -3.72,-0.211 -7.48,-0.063 -11.19,-0.442 -3.27,-0.332 -6.55,-0.96 -9.72,-1.871 -3.34,-0.949 -5.63,-3.371 -7.16,-6.488 -1.67,-3.422 -2.43,-7.039 -2.44,-10.832 0,-9.129 0,-18.258 0,-27.391 -0.12,-13.699 -0.42,-27.359 -2.06,-41.007 -1.23,-10.332 -2.95,-20.539 -5.83,-30.5 -6.99,-24.161 -20.01,-44.551 -39.45,-60.621 -26.27,-21.688 -56.48,-30.79 -90.36,-27.391 -9.984,1 -19.492,3.871 -28.254,8.949 -12.508,7.254 -20.343,17.891 -23.883,31.934 -2.382,9.449 -2.519,18.898 -0.937,28.386 2.605,15.59 7.019,30.711 12.379,45.563 2.398,6.617 4.996,13.18 7.555,19.75 1.527,3.918 2.308,7.937 2.113,12.16 -0.11,2.231 -1.477,4.34 -3.231,4.801 -2.086,0.547 -4.211,-0.274 -5.359,-2.102 -0.66,-1.05 -1.383,-2.07 -1.906,-3.191 -6.207,-13.129 -12.703,-26.117 -18.485,-39.43 -10.121,-23.301 -17.289,-47.5 -20.484,-72.801 -2.34,-18.5 -0.277,-36.519 6.727,-53.738 8.988,-22.101 25.062,-36.629 48.14,-43.351 16.813,-4.899 33.625,-4.219 50.445,-0.489 20.29,4.489 37.97,14.16 53.61,27.719 18.08,15.672 32.46,34.332 43.99,55.211 9.44,17.121 17.13,35 23.09,53.629 9.02,28.16 14.56,57 16.81,86.473 0.21,2.718 1.28,4.886 3.81,5.91 6.63,2.668 12.31,6.797 17.83,11.226 4.54,3.653 9.37,6.864 14.78,9.133 6.71,2.82 11.83,7.57 16.14,13.289 4.54,5.988 8.06,12.52 10.68,19.59 2.05,5.551 2.84,11.25 2.67,17.09 -0.06,1.629 -0.53,3.269 -0.98,4.851 -0.6,2.168 -4.89,3.387 -6.28,1.7" /><path
         id="path34"
         style="fill:#040606;fill-opacity:1;fill-rule:nonzero;stroke:none"
         d="m 445.352,1004.65 c -0.426,1.32 -1.711,1.68 -2.954,1.79 -1.765,0.16 -3.367,-0.49 -4.335,-1.92 -1.622,-2.38 -3.325,-4.782 -4.446,-7.411 -5.351,-12.597 -10.211,-25.41 -13.969,-38.578 -4.234,-14.84 -6.703,-29.941 -5.832,-45.472 0.231,-4.137 0.223,-8.297 0.157,-12.45 -0.11,-7.058 -0.793,-14.05 -2.563,-20.949 -8.824,-34.461 -27.172,-62.14 -57.93,-80.73 -23.828,-14.399 -49.601,-20.692 -77.464,-16.91 -10.391,1.41 -20.227,4.609 -29.164,10.152 -12.196,7.539 -20.207,18.098 -23.469,32.297 -1.899,8.261 -2.078,16.5 -0.828,24.73 1.683,11.071 4.316,21.961 8.277,32.492 3.215,8.539 6.328,17.118 9.453,25.688 1.988,5.461 4.059,10.891 5.809,16.422 0.601,1.898 0.543,4.078 0.406,6.109 -0.117,1.781 -1.547,2.871 -3.137,3.52 -1.41,0.57 -3.609,-0.168 -4.441,-1.418 -0.914,-1.371 -1.863,-2.742 -2.598,-4.211 -4.824,-9.641 -9.719,-19.25 -14.355,-28.992 -5.348,-11.239 -10.125,-22.731 -13.867,-34.629 -4.891,-15.578 -7.457,-31.45 -6.368,-47.828 0.278,-4.141 0.371,-8.301 0.496,-11.243 0,-11.168 0.028,-21.129 -0.007,-31.089 -0.024,-6.411 1.726,-12.258 5.144,-17.668 5.348,-8.473 11.551,-16.211 19.059,-22.883 4.054,-3.598 8.472,-6.641 13.219,-9.27 10.773,-5.969 22.406,-8.84 34.589,-8.937 20.704,-0.16 40.293,4.597 58.528,14.558 17.769,9.711 32.289,23.211 44.965,38.809 21.234,26.121 35.632,55.82 45.738,87.769 9.172,29.012 14.246,58.821 17.187,89.024 1.411,14.449 2.813,28.898 4.86,43.277 0.523,3.692 0.785,7.442 0.879,11.16 0.043,1.591 -0.539,3.241 -1.039,4.791" /><path
         id="path36"
         style="fill:#040606;fill-opacity:1;fill-rule:nonzero;stroke:none"
         d="m 1540.31,421.07 c -0.99,0.739 -2.07,1.391 -3.17,1.95 -3.82,1.941 -8.62,1.019 -11.3,-2.258 -1.58,-1.922 -3.02,-3.953 -4.38,-6.032 -4.35,-6.609 -9.29,-12.699 -15,-18.21 -7.19,-6.942 -13.32,-14.809 -18.84,-23.129 -4.82,-7.262 -9.15,-14.821 -12.95,-22.672 -1.99,-4.11 -3.95,-8.278 -7.17,-11.61 -5.27,-5.449 -6.6,-6.449 -11.56,-0.289 -1.55,1.942 -3.3,3.731 -5.08,5.469 -1.48,1.441 -3.04,2.852 -4.75,4 -9.39,6.301 -16.92,6.359 -26.26,-0.758 -1.64,-1.25 -3.11,-2.75 -4.51,-4.269 -1.68,-1.832 -3.32,-3.723 -4.77,-5.742 -8.55,-11.879 -15.08,-24.782 -19.47,-38.75 -1.51,-4.79 -2.19,-9.7 -1.75,-14.739 0.75,-8.551 4.99,-14.801 12.54,-18.761 4.06,-2.141 8.36,-3.629 13.02,-3.848 4.14,-0.203 8.27,-0.5 12.41,-0.774 1.08,-0.066 2.04,-1.789 1.55,-2.769 -0.74,-1.469 -1.38,-3.008 -2.27,-4.391 -6.19,-9.508 -14.35,-17.168 -23.24,-24.066 -6.55,-5.09 -13.4,-9.793 -19.95,-14.891 -6.54,-5.09 -12.89,-10.441 -19.25,-15.761 -0.87,-0.731 -1.36,-1.938 -1.91,-2.989 -0.14,-0.269 0.12,-1.09 0.31,-1.14 2.37,-0.532 4.77,-0.961 6.06,-1.2 6.97,0.289 12.74,0.59 18.36,2.457 4.7,1.59 9.57,2.692 14.36,4.043 14.23,3.989 25.24,12.25 32.94,24.879 6.7,11 12.96,22.239 17.13,34.481 3.63,10.66 8.63,20.66 14.16,30.398 6.35,11.192 12.91,22.25 19.32,33.403 2.3,3.988 5,7.628 8.45,10.687 5.9,5.223 12.79,7.563 20.63,6.941 2.06,-0.171 4.1,-0.621 6.11,-1.089 6.5,-1.512 12.32,0.39 17.84,3.578 5.88,3.39 10.48,8.14 13.82,14.031 6.59,11.66 8.7,23.969 5.62,37.191 -2.55,10.969 -8.01,19.911 -17.05,26.629" /><path
         id="path38"
         style="fill:#040606;fill-opacity:1;fill-rule:nonzero;stroke:none"
         d="m 1787.05,597.57 c 0.56,1.102 0.94,2.289 1.32,3.469 0.76,2.43 -0.6,5.352 -3.37,7.441 -2.15,1.61 -4.81,1.692 -6.83,-0.121 -3.71,-3.3 -7.3,-6.738 -10.92,-10.148 -9.1,-8.563 -18.92,-16.09 -30.26,-21.551 -11.44,-5.519 -23.62,-8.219 -36.14,-7.461 -9.18,0.571 -18.14,0.16 -27.23,-0.789 -17.01,-1.781 -32.04,-8.191 -45.42,-18.531 -13.27,-10.258 -23.73,-23.098 -32.62,-37.231 -1.28,-2.027 -1.79,-4.589 -2.4,-6.968 -0.57,-2.211 1.88,-5.309 4.1,-5.211 2.04,0.09 4.2,0.191 6.05,0.922 2.67,1.058 5.12,2.687 7.67,4.078 11.85,6.461 24.54,9.89 38.03,10.172 5.39,0.109 10.78,0.019 16.17,0.019 0,-0.058 0,-0.129 0.01,-0.18 5.39,0 10.78,-0.101 16.16,0.008 18.31,0.403 34.96,5.672 50,16.344 24.2,17.188 42.35,39.398 55.68,65.738" /><path
         id="path40"
         style="fill:#040606;fill-opacity:1;fill-rule:nonzero;stroke:none"
         d="m 547.754,311.262 c 0.609,4.707 -0.844,10.379 -2.621,15.898 -2.723,8.488 -7.668,15.602 -14.922,20.899 -4.481,3.281 -9.57,5.113 -15.145,4.421 -4.57,-0.558 -8.894,-2.218 -12.304,-5.48 -2.684,-2.57 -5.332,-5.238 -7.614,-8.16 -9.539,-12.231 -16.148,-25.988 -20.812,-40.731 -1.52,-4.789 -1.965,-9.73 -1.543,-14.738 0.637,-7.562 4.312,-13.281 10.695,-17.262 4.274,-2.66 8.903,-4.41 13.985,-4.718 2.894,-0.172 5.797,-0.243 8.695,-0.411 1.652,-0.101 3.297,-0.269 4.937,-0.441 1.079,-0.109 1.942,-1.848 1.524,-2.867 -2.086,-5.102 -5.789,-9.043 -9.445,-12.961 -9.645,-10.34 -20.223,-19.609 -32.11,-27.332 -4.859,-3.16 -9.726,-6.328 -14.406,-9.75 -4.016,-2.93 -7.754,-6.231 -10.441,-10.52 -0.52,-0.839 0.035,-2.777 0.878,-3.218 3.485,-1.821 7.153,-1.879 10.899,-1.192 11.422,2.141 22.578,5.332 33.461,9.332 10.426,3.84 18.562,10.699 24.574,20.098 13.281,20.769 23.242,42.98 28.758,67.043 1.566,6.816 3.058,13.769 2.957,22.09" /><path
         id="path42"
         style="fill:#040606;fill-opacity:1;fill-rule:nonzero;stroke:none"
         d="m 851,347.949 c -8.551,6.223 -17.957,6.012 -26.531,-0.277 -4.391,-3.223 -7.781,-7.434 -10.903,-11.844 -7.226,-10.207 -12.949,-21.199 -16.863,-33.09 -1.297,-3.918 -2.406,-7.929 -3.273,-11.957 -1.797,-8.402 1.855,-19.941 11.828,-25.301 4.039,-2.171 8.281,-3.839 12.93,-4.082 2.898,-0.136 5.8,-0.078 8.699,-0.179 1.238,-0.047 2.468,-0.25 3.695,-0.438 1.996,-0.312 3.418,-3.179 2.27,-4.73 -2.446,-3.34 -4.782,-6.789 -7.543,-9.852 -9.465,-10.508 -19.989,-19.84 -31.813,-27.66 -4.492,-2.969 -8.992,-5.93 -13.426,-8.988 -4.8,-3.313 -9.117,-7.18 -12.722,-11.781 -0.442,-0.559 -0.477,-1.461 -0.629,-2.219 -0.172,-0.879 1.113,-1.68 2.84,-1.711 2.07,-0.039 4.144,-0.008 6.929,-0.008 11.153,-0.422 22.086,3.398 33.059,7.258 11.785,4.148 20.863,11.332 27.66,21.91 13.82,21.488 23.793,44.531 28.887,69.582 1.902,9.379 2.629,18.887 1.148,28.43 -1.738,11.179 -7.14,20.32 -16.242,26.937" /><path
         id="path44"
         style="fill:#040606;fill-opacity:1;fill-rule:nonzero;stroke:none"
         d="m 2525.28,344.41 c -10.54,10.699 -23.11,10.981 -34.11,0.539 -2.09,-1.988 -3.95,-4.258 -5.71,-6.558 -9.41,-12.352 -16.04,-26.11 -20.63,-40.891 -1.5,-4.82 -1.73,-9.781 -1.3,-14.789 0.36,-4.281 1.9,-8.133 4.72,-11.281 1.9,-2.129 4.19,-4.02 6.6,-5.559 4.62,-2.961 9.79,-4.449 15.32,-4.57 3.72,-0.082 7.45,-0.172 11.18,-0.281 1.58,-0.051 2.6,-2.211 1.76,-3.692 -0.62,-1.066 -1.2,-2.168 -1.89,-3.199 -4.65,-6.938 -10.21,-13.129 -16.49,-18.559 -7.54,-6.5 -15.42,-12.59 -23.19,-18.82 -6.47,-5.18 -13.02,-10.27 -19.47,-15.488 -1.26,-1.024 -2.24,-2.383 -3.29,-3.633 -0.24,-0.277 -0.4,-0.891 -0.25,-1.149 0.36,-0.652 0.86,-1.601 1.43,-1.71 2.43,-0.45 4.91,-0.629 5.72,-0.719 7.11,-0.153 12.43,0.418 17.62,2.168 5.89,1.98 11.82,3.84 17.77,5.66 10.81,3.301 18.98,9.891 24.87,19.492 5.87,9.551 11.56,19.18 16.3,29.359 5.45,11.692 10.03,23.7 12.52,36.372 1.44,7.308 2.71,14.707 3.23,22.128 0.96,13.481 -3.17,25.489 -12.71,35.18" /><path
         id="path46"
         style="fill:#040606;fill-opacity:1;fill-rule:nonzero;stroke:none"
         d="m 620.234,229.191 c 1.883,3.68 3.539,7.489 5.075,11.329 3.531,8.851 6.929,17.742 10.367,26.621 3.683,9.507 9.262,17.629 17.75,23.41 3.394,2.308 7.14,4.211 10.926,5.84 17.316,7.449 29.011,20.218 36.078,37.488 3.929,9.601 6.898,19.512 9.355,29.57 0.578,2.36 0.461,4.93 0.43,7.391 -0.031,2.308 -2.238,4.621 -4.629,5.219 -3.629,0.91 -7.07,-0.028 -8.859,-2.809 -2.008,-3.121 -3.836,-6.379 -5.547,-9.672 -4.922,-9.508 -11.746,-17 -21.832,-21.156 -1.524,-0.641 -3.008,-1.402 -4.465,-2.184 -16.594,-8.867 -29.215,-21.609 -37.406,-38.609 -1.797,-3.731 -3.336,-7.578 -4.981,-11.379 -6.008,-13.871 -14.476,-26.012 -25.351,-36.52 -7.485,-7.242 -15.747,-13.429 -24.422,-19.14 -8.649,-5.699 -17.243,-11.481 -25.727,-17.43 -3.719,-2.601 -7.168,-5.609 -10.594,-8.609 -1.203,-1.051 -2.14,-2.52 -2.914,-3.961 -2.648,-4.918 0.367,-10.551 5.817,-11.031 1.238,-0.11 2.472,-0.168 3.957,-0.278 2.238,0.258 4.738,0.391 7.176,0.86 11.378,2.179 22.769,4.339 34.109,6.73 16.574,3.469 28.113,13.469 35.687,28.32" /><path
         id="path48"
         style="fill:#040606;fill-opacity:1;fill-rule:nonzero;stroke:none"
         d="m 702.527,989.391 c -0.23,2.179 -1.672,3.75 -3.714,4.589 -3.223,1.34 -7.043,0.52 -9.063,-2.011 -1.289,-1.598 -2.477,-3.309 -3.52,-5.09 -1.46,-2.5 -2.687,-5.141 -4.128,-7.66 -4.442,-7.758 -10.43,-13.891 -18.715,-17.578 -1.891,-0.84 -3.758,-1.762 -5.582,-2.731 -13.836,-7.371 -25.035,-17.582 -33.391,-30.898 -3.535,-5.653 -6.484,-11.563 -8.973,-17.723 -7.64,-18.93 -19.816,-34.398 -35.937,-46.777 -4.93,-3.793 -10.098,-7.262 -15.234,-10.774 -8.215,-5.597 -16.571,-11.019 -24.715,-16.726 -3.715,-2.614 -7.137,-5.672 -10.563,-8.672 -1.219,-1.07 -2.262,-2.461 -3.043,-3.891 -2.84,-5.199 0.071,-10.621 5.387,-11.269 0.82,-0.102 1.652,-0.149 3.949,-0.34 1.848,0.238 5.137,0.59 8.403,1.109 3.269,0.531 6.519,1.199 9.773,1.84 7.723,1.52 15.484,2.883 23.156,4.633 14.922,3.398 26.356,11.738 34.02,25.039 1.855,3.219 3.508,6.59 4.929,10.019 3.497,8.418 6.805,16.918 10.18,25.391 1.223,3.07 2.297,6.207 3.621,9.25 4.656,10.668 12.098,18.731 22.613,23.848 2.606,1.269 5.274,2.422 7.907,3.64 8.035,3.711 14.793,9.09 20.648,15.692 4.723,5.328 8.391,11.328 11.266,17.801 4.722,10.636 7.832,21.828 10.531,33.117 0.469,1.961 0.406,4.133 0.195,6.172" /><path
         id="path50"
         style="fill:#040606;fill-opacity:1;fill-rule:nonzero;stroke:none"
         d="m 1887.12,432.641 c -3.99,1.738 -8.45,0.629 -11.21,-2.719 -0.53,-0.641 -1.07,-1.281 -1.52,-1.961 -7.32,-11.051 -14.64,-22.082 -21.89,-33.172 -1.35,-2.07 -2.58,-4.269 -3.45,-6.57 -1.1,-2.867 -0.72,-5.77 1.41,-8.137 1.65,-1.844 3.38,-3.641 5.28,-5.23 5.71,-4.782 11.51,-9.454 17.29,-14.161 0.63,-0.519 1.32,-0.992 2.02,-1.421 3.74,-2.282 9.52,-2.09 12.9,0.71 2.53,2.098 4.86,4.481 7.11,6.899 3.67,3.941 7.17,8.031 10.78,12.031 1.23,1.36 3.04,1.578 4.43,0.551 4.3,-3.231 8.52,-6.57 12.88,-9.723 3.35,-2.418 6.79,-4.726 10.32,-6.859 3.95,-2.399 7.92,-1.957 11.64,0.68 1.35,0.961 2.71,1.929 3.87,3.089 6.5,6.481 11.95,13.762 16.12,21.93 2.47,4.852 3.87,10.031 3.64,16.461 0.43,6.16 -2.5,12.02 -6.91,17.191 -5.18,6.071 -11.63,10.532 -18.87,13.84 -3.66,1.668 -7.22,0.75 -9.91,-2.629 -1.81,-2.261 -3.49,-4.632 -5.09,-7.043 -2.97,-4.488 -5.82,-9.046 -8.75,-13.558 -1.13,-1.731 -2.35,-3.399 -3.51,-5.11 -0.67,-0.98 -2.22,-0.851 -3.04,0.25 -2.73,3.641 -5.27,7.418 -8.17,10.918 -4.81,5.782 -10.38,10.692 -17.37,13.743" /><path
         id="path52"
         style="fill:#040606;fill-opacity:1;fill-rule:nonzero;stroke:none"
         d="m 1205.55,534.969 c -4.1,2.16 -8.35,1.32 -11.13,-2.348 -3.24,-4.293 -6.19,-8.812 -9.24,-13.262 -2.81,-4.089 -5.57,-8.23 -8.39,-12.328 -0.75,-1.082 -2.46,-1.179 -3.08,-0.261 -2.08,3.089 -4.03,6.281 -6.26,9.261 -5.34,7.129 -12.24,12.309 -20.45,15.77 -2.58,1.09 -4.95,0.48 -6.98,-1.172 -1.59,-1.289 -3.14,-2.777 -4.26,-4.469 -7.58,-11.398 -15.06,-22.871 -22.51,-34.351 -0.89,-1.368 -1.59,-2.918 -2.08,-4.489 -1.04,-3.371 -0.63,-6.55 1.78,-9.308 0.55,-0.621 1.03,-1.332 1.67,-1.852 6.76,-5.488 13.54,-10.969 20.33,-16.422 0.64,-0.519 1.38,-0.906 2.1,-1.316 4.43,-2.582 8.79,-2.211 12.82,0.738 4.03,2.949 7.47,6.559 10.41,10.621 1.71,2.34 3.4,4.699 5.24,6.93 1.5,1.809 4.84,2.41 6.86,1.117 3.14,-2 6.11,-4.25 9.17,-6.379 4.41,-3.07 8.72,-6.328 13.29,-9.148 4.4,-2.699 8.87,-2 12.66,1.347 8.48,7.512 15.43,16.274 20.09,26.633 1.87,4.141 3.37,8.52 3.16,11.289 -0.16,8.918 -2.96,14.809 -7.41,19.989 -4.95,5.761 -11.14,9.921 -17.79,13.41" /><path
         id="path54"
         style="fill:#040606;fill-opacity:1;fill-rule:nonzero;stroke:none"
         d="m 296.184,533.77 c -7.782,4.218 -12.407,1.558 -15.973,-3.942 -4.293,-6.609 -8.547,-13.238 -12.902,-19.808 -0.895,-1.348 -2.149,-2.45 -3.293,-3.622 -0.258,-0.257 -0.961,-0.519 -1.082,-0.398 -0.875,0.859 -1.84,1.719 -2.438,2.77 -4.371,7.73 -10.152,14.16 -17.609,18.968 -2.414,1.563 -5.121,2.684 -7.754,3.864 -2.531,1.136 -4.942,0.32 -7.063,-1.082 -1.351,-0.891 -2.672,-2.059 -3.562,-3.411 C 216.5,515 208.582,502.84 200.68,490.66 c -0.668,-1.031 -1.098,-2.238 -1.492,-3.41 -1.129,-3.379 -0.778,-6.539 1.714,-9.27 0.836,-0.91 1.676,-1.851 2.637,-2.628 6.113,-4.981 12.199,-9.993 18.438,-14.801 1.933,-1.5 4.211,-2.699 6.511,-3.539 1.438,-0.524 3.371,-0.563 4.801,-0.051 2.297,0.82 4.695,1.918 6.449,3.551 3.325,3.09 6.274,6.59 9.278,10.008 1.632,1.871 2.988,3.968 4.601,5.859 1.895,2.211 5.461,2.742 7.942,1.019 3.41,-2.347 6.625,-4.988 10,-7.386 3.714,-2.653 7.402,-5.34 11.296,-7.684 4.383,-2.648 8.825,-2.187 12.684,1.152 8.57,7.43 15.457,16.231 20.109,26.59 1.86,4.141 3.313,8.532 3.09,12.68 0.032,7.531 -2.687,13.461 -7.031,18.73 -4.285,5.2 -9.641,9.102 -15.523,12.29" /><path
         id="path56"
         style="fill:#040606;fill-opacity:1;fill-rule:nonzero;stroke:none"
         d="m 689.836,146.941 c -3.484,0.707 -6.68,-0.089 -8.934,-3.011 -2.023,-2.621 -3.808,-5.43 -5.672,-8.168 -3.73,-5.473 -7.433,-10.973 -11.175,-16.442 -0.703,-1.019 -2.559,-1.148 -3.215,-0.3 -2.531,3.281 -5.039,6.582 -7.586,9.839 -4.684,6 -10.543,10.539 -17.348,13.879 -1.105,0.543 -2.289,0.981 -3.484,1.274 -1.668,0.398 -3.504,0.238 -4.707,-0.922 -2.371,-2.281 -4.777,-4.649 -6.613,-7.352 -6.758,-9.957 -13.309,-20.058 -19.887,-30.136 -1.125,-1.723 -2.098,-3.582 -2.949,-5.461 -1.832,-4.0316 -1.161,-8.3715 2.351,-11.3402 6.953,-5.8906 14.168,-11.4922 21.285,-17.1797 0.649,-0.5195 1.364,-0.9727 2.11,-1.3125 4.492,-2.0391 8.941,-2.1289 12.898,1.0625 2.891,2.3398 5.508,5.0273 8.153,7.6484 2.355,2.3321 4.472,4.9102 6.89,7.1719 3.402,3.1875 6.387,3.5 10.102,1.0469 3.113,-2.0469 6.015,-4.4102 9.054,-6.5664 3.379,-2.4024 6.719,-4.8711 10.243,-7.043 3.941,-2.418 8.007,-2.1601 11.593,0.7695 8.785,7.1797 15.914,15.7735 20.703,26.1016 2.09,4.512 3.622,9.281 3.418,14.391 0,0.828 0.079,1.668 -0.011,2.5 -1.328,12.238 -14.922,27.039 -27.219,29.55" /><path
         id="path58"
         style="fill:#040606;fill-opacity:1;fill-rule:nonzero;stroke:none"
         d="m 669.77,743.961 c -0.344,0.211 -0.762,0.32 -1.137,0.488 -3.485,1.653 -7.809,0.961 -10.211,-2 -2.336,-2.879 -4.391,-5.988 -6.504,-9.051 -3.293,-4.769 -6.492,-9.597 -9.813,-14.347 -0.695,-0.992 -1.652,-1.891 -2.679,-2.52 -0.481,-0.293 -1.758,-0.07 -2.102,0.367 -1.527,1.922 -2.836,4.032 -4.25,6.051 -5.062,7.231 -11.316,13.141 -19.101,17.403 -6.184,3.386 -9.782,2.918 -13.797,-2.922 -8.215,-11.93 -16.153,-24.059 -24.113,-36.16 -1.125,-1.711 -2.11,-3.649 -2.532,-5.622 -0.316,-1.476 0.063,-3.32 0.703,-4.738 0.657,-1.449 1.848,-2.769 3.079,-3.832 6.265,-5.406 12.605,-10.75 18.968,-16.039 1.262,-1.051 2.707,-1.91 4.168,-2.687 3.989,-2.133 7.992,-2.051 11.742,0.507 3.434,2.352 6.442,5.192 8.864,8.61 1.672,2.371 3.281,4.793 5.125,7.011 3.238,3.899 9.258,4.668 13.488,1.649 2.344,-1.668 4.355,-3.801 6.625,-5.598 3.883,-3.09 7.723,-6.25 11.816,-9.043 2.954,-2.008 6.282,-1.777 9.422,-0.019 0.723,0.402 1.453,0.82 2.082,1.351 8.614,7.301 15.864,15.692 21.028,25.821 2.113,4.14 3.05,8.539 3.707,12.82 -0.227,1.488 -0.391,2.719 -0.606,3.93 -1.086,6.328 -4.07,11.668 -8.387,16.339 -4.539,4.918 -9.953,8.711 -15.585,12.231" /><path
         id="path60"
         style="fill:#040606;fill-opacity:1;fill-rule:nonzero;stroke:none"
         d="m 2301.46,431.23 c -0.5,0.622 -1.01,1.321 -1.68,1.7 -2.05,1.172 -5.74,0.621 -6.86,-1.059 -1.14,-1.711 -2.27,-3.48 -3.12,-5.351 -4.27,-9.442 -8.54,-18.891 -12.63,-28.411 -2.46,-5.711 -4.84,-11.48 -6.82,-17.359 -2.65,-7.859 -4.89,-15.871 -5.59,-24.18 -1.71,-20.238 -3.35,-40.5 -4.99,-60.75 -1.4,-17.371 -3.42,-34.66 -6.94,-51.742 -1.5,-7.297 -3.3,-14.539 -4.83,-21.84 -0.59,-2.816 -0.88,-5.707 -1.18,-8.578 -0.14,-1.351 1.41,-3.398 2.61,-3.898 1.66,-0.692 3.3,-0.492 4.77,0.308 1.07,0.578 2.12,1.418 2.83,2.399 2.68,3.679 5.59,7.25 7.76,11.23 8.76,16.09 15.5,32.981 19.89,50.813 3.88,15.769 5.34,31.886 6.96,47.957 1.95,19.39 3.43,38.832 4.88,58.261 0.97,12.84 2.56,25.579 4.87,38.231 0.44,2.449 0.59,4.937 0.87,7.398 -0.13,1.262 -0.24,2.5 -0.4,3.723 -0.05,0.398 -0.16,0.848 -0.4,1.148" /><path
         id="path62"
         style="fill:#040606;fill-opacity:1;fill-rule:nonzero;stroke:none"
         d="m 1665.45,433.602 c -1.78,0.027 -3.32,-0.571 -4.38,-1.903 -1.29,-1.609 -2.56,-3.308 -3.39,-5.168 -6.29,-13.98 -12.51,-28 -17.49,-42.519 -5.96,-17.364 -9.38,-35.223 -10.13,-53.563 -0.65,-15.738 -0.77,-31.508 -3.03,-47.148 -1.36,-9.43 -2.39,-18.91 -3.96,-28.301 -1.92,-11.449 -4.49,-22.762 -7.53,-33.969 -0.64,-2.351 -0.87,-4.883 -0.85,-7.332 0.01,-1.64 1.02,-3.109 2.65,-3.918 1.64,-0.812 3.25,-0.519 4.71,0.34 4.07,2.391 6.82,6.059 9.04,10.07 2.61,4.7 5,9.547 7.26,14.43 8.76,18.91 15.22,38.578 17.94,59.27 2.06,15.609 3.74,31.289 4.88,46.988 1.4,19.441 2.77,38.871 5.26,58.199 0.63,4.934 1.4,9.844 2.06,14.762 0.57,4.109 1.07,8.23 1.64,12.691 -0.25,1.321 -0.51,2.938 -0.85,4.547 -0.29,1.383 -2.15,2.492 -3.83,2.524" /><path
         id="path64"
         style="fill:#040606;fill-opacity:1;fill-rule:nonzero;stroke:none"
         d="m 771.316,1046.32 c -0.171,0.85 -0.32,2.09 -0.691,3.25 -0.867,2.74 -5.156,3.89 -7.207,1.89 -1.168,-1.14 -2.461,-2.34 -3.113,-3.77 -7.844,-17.37 -15.969,-34.64 -21.684,-52.862 -3.226,-10.277 -5.781,-20.75 -6.234,-31.617 -0.864,-20.699 -2.254,-41.371 -4.614,-61.973 -2.453,-21.429 -5.574,-42.707 -11.796,-63.429 -0.352,-1.18 -0.481,-2.438 -0.661,-3.661 -0.277,-1.91 1.032,-4.058 2.864,-5.046 2.05,-1.122 4.019,-0.84 5.875,0.269 1.043,0.629 2.058,1.469 2.769,2.449 2.196,3.02 4.524,5.981 6.293,9.239 11.571,21.269 20.141,43.691 23.664,67.703 2.403,16.379 3.903,32.929 5.188,49.437 1.965,25.211 3.676,50.421 7.636,75.421 0.653,4.09 1.11,8.21 1.711,12.7" /><path
         id="path66"
         style="fill:#040606;fill-opacity:1;fill-rule:nonzero;stroke:none"
         d="m 1453.61,1052.59 c -1.54,0.59 -4.53,-0.29 -5.56,-1.84 -1.14,-1.71 -2.25,-3.47 -3.09,-5.33 -3.76,-8.29 -7.48,-16.6 -11.08,-24.96 -2.62,-6.08 -5.12,-12.22 -7.51,-18.38 -2.69,-6.959 -4.94,-14.119 -5.98,-21.49 -1.34,-9.41 -2.87,-18.84 -2.77,-28.41 0.13,-14.121 -2.21,-28.051 -3.31,-42.078 -0.62,-7.832 -1.6,-15.653 -2.68,-23.442 -2.29,-16.39 -5.02,-32.711 -9.47,-48.691 -0.22,-0.797 -0.49,-1.59 -0.63,-2.399 -0.14,-0.8 -0.16,-1.64 -0.22,-2.449 -0.12,-1.672 1.5,-4.133 3.32,-4.871 1.73,-0.711 3.32,-0.039 4.55,1.059 4.37,3.902 7.92,8.48 10.61,13.66 8.99,17.32 16.37,35.261 20.44,54.441 3.98,18.68 5.47,37.66 7.11,56.621 1.21,14.02 1.88,28.09 3.18,42.11 1,10.699 2.56,21.359 3.96,32.019 0.81,6.15 1.79,12.27 2.7,18.51 -0.02,0.31 -0.08,0.72 -0.09,1.14 -0.03,1.64 -1.85,4.16 -3.48,4.78" /><path
         id="path68"
         style="fill:#040606;fill-opacity:1;fill-rule:nonzero;stroke:none"
         d="m 526.988,1048.03 c -0.242,1.9 -2.179,3.97 -3.972,4.32 -1.84,0.36 -3.375,-0.51 -4.379,-1.73 -1.555,-1.89 -2.965,-4 -3.989,-6.21 -6.25,-13.55 -12.054,-27.28 -16.878,-41.41 -6.071,-17.781 -9.493,-35.91 -10.29,-54.75 -0.714,-16.961 -1.445,-33.941 -3.66,-50.84 -1.886,-14.398 -4.121,-28.691 -7.422,-42.82 -1.32,-5.649 -2.773,-11.262 -4.168,-16.891 -0.292,-1.199 -0.628,-2.398 -0.867,-3.609 -0.379,-1.899 0.735,-4.09 2.563,-5.238 1.75,-1.09 4.238,-0.973 5.785,0.32 4.519,3.777 7.957,8.457 10.566,13.668 3.344,6.66 6.536,13.422 9.493,20.262 5.773,13.359 10.128,27.187 12.324,41.597 1.429,9.41 2.301,18.922 3.246,28.403 1.683,16.898 3.449,33.808 4.789,50.738 1.371,17.36 3.211,34.65 5.703,51.89 0.473,3.28 0.957,6.55 1.426,9.79 -0.094,0.86 -0.16,1.69 -0.27,2.51" /><path
         id="path70"
         style="fill:#040606;fill-opacity:1;fill-rule:nonzero;stroke:none"
         d="m 2224.91,355.5 c -2.74,1.109 -6.2,0.18 -7.71,-2.27 -1.08,-1.742 -2.12,-3.57 -2.78,-5.492 -2.45,-7.027 -4.77,-14.109 -7.06,-21.199 -3.93,-12.199 -7.92,-24.391 -11.68,-36.648 -6.15,-20.039 -17.66,-36.36 -33.86,-49.481 -1.29,-1.051 -2.54,-2.121 -3.82,-3.172 -8.01,-6.558 -16.08,-13.047 -24.02,-19.707 -4.43,-3.722 -8.69,-7.672 -12.91,-11.633 -1.19,-1.109 -2.09,-2.57 -2.94,-3.968 -1.72,-2.86 0.11,-7.258 3.31,-8.059 1.6,-0.402 3.24,-0.66 4.91,-1 3.67,0.59 7.46,0.82 11.01,1.848 10.73,3.082 21.52,6.082 32.02,9.851 13.8,4.95 24.19,14.168 30.79,27.379 1.85,3.68 3.46,7.52 4.86,11.403 3.93,10.898 6.99,22.078 9.88,33.296 5.89,22.872 9.75,46.141 13.85,69.372 0.22,1.21 0.21,2.46 0.21,3.699 0.01,2.211 -1.93,4.922 -4.06,5.781" /><path
         id="path72"
         style="fill:#040606;fill-opacity:1;fill-rule:nonzero;stroke:none"
         d="m 2429.71,355.469 c -2.92,1.242 -6.81,-0.219 -8.48,-3.367 -0.97,-1.813 -1.83,-3.723 -2.47,-5.68 -3.33,-10.242 -6.58,-20.512 -9.87,-30.774 -3.79,-11.839 -7.38,-23.75 -12.11,-35.277 -4.79,-11.672 -11.41,-22.09 -20.55,-30.832 -4.8,-4.578 -9.69,-9.078 -14.76,-13.348 -8.25,-6.953 -16.72,-13.632 -25.02,-20.531 -3.5,-2.91 -6.89,-5.98 -10.13,-9.191 -1.44,-1.418 -2.49,-3.289 -3.49,-5.078 -1.27,-2.289 0.42,-6.481 2.88,-7.379 1.16,-0.422 2.39,-0.66 4.35,-1.192 3.4,0.52 7.56,0.84 11.56,1.828 12.07,3 23.94,6.692 35.52,11.301 14.31,5.692 24.09,15.742 29.61,30.082 4.77,12.391 8.91,24.981 12.34,37.809 5.26,19.648 8.68,39.672 12.17,59.68 0.86,4.89 1.56,9.82 2.23,14.75 0.41,3.062 -1.29,6.14 -3.78,7.199" /><path
         id="path74"
         style="fill:#040606;fill-opacity:1;fill-rule:nonzero;stroke:none"
         d="m 437.883,355.801 c -2.461,0.519 -5.02,-0.582 -6.52,-2.582 -2.527,-3.379 -3.793,-7.328 -5.187,-11.219 -4.047,-11.309 -7.043,-22.922 -9.961,-34.559 -6.07,-24.25 -18.098,-45.203 -35.59,-63.043 -7.277,-7.429 -15.289,-13.968 -23.781,-19.918 -7.489,-5.25 -14.336,-11.242 -20.922,-17.539 -1.473,-1.41 -2.727,-3.101 -3.828,-4.832 -1.778,-2.789 -0.067,-7.32 3.015,-8.25 1.579,-0.468 3.211,-0.769 5.118,-1.218 2.207,0.398 4.683,0.679 7.058,1.308 10.004,2.621 20.063,5.082 29.945,8.102 17.536,5.359 30.36,16.418 38.504,32.91 3.133,6.348 5.383,13.008 7.27,19.777 7.105,25.532 12.758,51.403 17.426,77.473 1.015,5.687 1.711,11.449 2.336,17.199 0.312,2.84 -2.176,5.809 -4.883,6.391" /><path
         id="path76"
         style="fill:#040606;fill-opacity:1;fill-rule:nonzero;stroke:none"
         d="m 1350.16,355.629 c -2.33,0.769 -5.43,0.012 -6.69,-2 -1.3,-2.07 -2.54,-4.27 -3.31,-6.578 -4.15,-12.571 -8.07,-25.231 -12.22,-37.801 -3.24,-9.82 -6.47,-19.66 -10.1,-29.34 -4.28,-11.398 -10.93,-21.379 -19.76,-29.789 -5.1,-4.859 -10.34,-9.57 -15.71,-14.121 -9.8,-8.301 -19.79,-16.379 -29.6,-24.66 -2.84,-2.391 -5.49,-5.051 -7.96,-7.828 -1.75,-1.961 -2.12,-4.5 -0.94,-6.961 0.97,-2.02 2.9,-2.84 5.01,-3.211 0.82,-0.141 1.64,-0.211 3.64,-0.469 3.76,0.707 8.73,1.27 13.48,2.609 9.16,2.579 18.19,5.59 27.27,8.45 16.93,5.308 28.46,16.41 34.88,32.859 1.95,5.012 3.68,10.109 5.39,15.211 10.42,31.141 15.72,63.422 21.12,95.672 0.2,1.168 -0.02,2.508 -0.39,3.66 -0.65,2.027 -1.98,3.59 -4.11,4.297" /><path
         id="path78"
         style="fill:#040606;fill-opacity:1;fill-rule:nonzero;stroke:none"
         d="m 1877.76,850.629 c 5.38,12.133 9.56,24.699 13.04,37.5 5.44,19.992 9.18,40.34 12.64,60.75 0.9,5.301 1.86,10.59 2.62,14.949 -0.13,2.223 -0.2,3.461 -0.29,4.692 -0.04,0.41 -0.2,0.8 -0.27,1.21 -0.4,2.25 -2.9,4.282 -5.43,4.29 -2.19,0.011 -4.23,-0.719 -5.28,-2.649 -1.57,-2.891 -3.03,-5.891 -4.09,-9 -4.51,-13.32 -8.95,-26.652 -12.4,-40.332 -5.69,-22.578 -16.76,-42.258 -33.6,-58.469 -4.76,-4.59 -9.77,-9 -15.08,-12.922 -10.04,-7.386 -19.3,-15.668 -28.73,-23.75 -1.26,-1.07 -2.58,-2.199 -3.42,-3.578 -0.82,-1.359 -1.34,-3.031 -1.55,-4.621 -0.46,-3.527 2.24,-6.801 5.64,-6.738 3.3,0.051 6.67,0.117 9.86,0.82 14.18,3.11 27.93,7.528 41.32,13.231 11.69,4.976 19.93,13.148 25.02,24.617" /><path
         id="path80"
         style="fill:#040606;fill-opacity:1;fill-rule:nonzero;stroke:none"
         d="m 297.023,883.621 c 7.129,-6.281 14.352,-12.441 21.551,-18.633 0.938,-0.808 1.887,-1.609 2.891,-2.34 3.926,-2.828 7.812,-3.07 11.351,-0.07 4.399,3.742 8.661,7.672 12.606,11.871 6.043,6.422 10,14.121 12.293,22.629 0.64,2.371 0.871,4.844 1.285,7.281 -0.012,4.321 -1.305,8.219 -3.496,11.813 -2.809,4.617 -6.25,8.789 -10.492,12.117 -5.516,4.32 -11.285,8.32 -16.981,12.41 -0.652,0.473 -1.496,0.672 -2.254,1 -2.082,0.903 -5.367,0.192 -6.773,-1.648 -1.5,-1.961 -2.957,-3.981 -4.219,-6.09 -6.758,-11.352 -13.461,-22.731 -20.152,-34.121 -0.836,-1.418 -1.555,-2.918 -2.195,-4.43 -1.036,-2.449 -0.84,-4.91 0.632,-7.082 1.145,-1.699 2.434,-3.367 3.953,-4.707" /><path
         id="path82"
         style="fill:#040606;fill-opacity:1;fill-rule:nonzero;stroke:none"
         d="m 1348.01,475.301 c -2.75,1.918 -5.76,3.25 -9.09,3.828 -3.12,0.551 -5.71,-0.5 -7.86,-2.699 -0.86,-0.879 -1.61,-1.899 -2.29,-2.93 -8.22,-12.449 -16.43,-24.891 -24.59,-37.379 -1.12,-1.723 -2.04,-3.609 -2.83,-5.512 -0.83,-2.031 -0.59,-4.121 0.68,-5.918 0.95,-1.332 2.01,-2.671 3.28,-3.679 6.81,-5.422 13.61,-10.84 20.58,-16.063 6.86,-5.129 10.82,-5.019 18,0.02 1.02,0.722 2.05,1.429 2.97,2.25 8.81,7.871 15.46,17.281 19.71,28.281 1.03,2.66 1.32,5.602 1.73,7.449 -0.26,4.36 -0.69,7.59 -2.17,10.672 -4.21,8.777 -10.14,16.07 -18.12,21.68" /><path
         id="path84"
         style="fill:#040606;fill-opacity:1;fill-rule:nonzero;stroke:none"
         d="m 2390.04,417.121 c 3.79,-3.191 7.62,-6.34 11.48,-9.449 1.93,-1.551 3.94,-3 5.97,-4.422 3.78,-2.629 7.74,-2.699 11.65,-0.398 2.48,1.457 5.03,2.929 7.15,4.839 8.4,7.59 14.74,16.649 18.92,27.207 1.25,3.153 1.62,6.391 1.67,9.172 -0.07,4.301 -0.87,7.852 -2.47,11.301 -4.57,9.738 -11.96,16.699 -21.18,21.891 -1.06,0.597 -2.3,0.886 -3.49,1.238 -4.4,1.289 -8.51,0.16 -10.97,-3.539 -7.55,-11.34 -14.98,-22.75 -22.33,-34.231 -1.54,-2.41 -2.59,-5.16 -3.68,-7.832 -1.18,-2.867 -0.62,-5.636 0.84,-8.32 1.61,-2.969 3.9,-5.328 6.44,-7.457" /><path
         id="path86"
         style="fill:#040606;fill-opacity:1;fill-rule:nonzero;stroke:none"
         d="m 2256.52,804.691 c -1.47,7.899 -4.81,14.918 -10.64,20.629 -3.86,3.782 -8.04,7.121 -12.75,9.821 -6.46,3.699 -10.77,3.031 -15.2,-2.512 -0.77,-0.957 -1.53,-1.957 -2.21,-2.988 -7.95,-12.102 -15.99,-24.153 -23.78,-36.36 -3.92,-6.133 -3.25,-9.472 2.3,-13.871 6.8,-5.398 13.7,-10.691 20.6,-15.98 1.3,-1 2.76,-1.821 4.25,-2.52 1.1,-0.512 2.36,-0.68 3.6,-1.019 1.2,0.289 2.53,0.328 3.56,0.898 15.21,8.449 25.28,21.063 30.09,37.77 0.55,1.91 0.55,4.152 0.18,6.132" /><path
         id="path88"
         style="fill:#040606;fill-opacity:1;fill-rule:nonzero;stroke:none"
         d="m 665.754,72.0898 c -2.313,1.6211 -5.152,2.5704 -7.844,3.5704 -3.07,1.1484 -5.781,-0.0508 -7.875,-2.2305 -1.703,-1.7813 -3.09,-3.8789 -4.437,-5.9609 -6.989,-10.75 -13.95,-21.5274 -20.848,-32.3399 -1.328,-2.0781 -2.441,-4.3203 -3.469,-6.5703 -0.949,-2.0703 -0.355,-4.0898 1.012,-5.7773 1.035,-1.2696 2.242,-2.4415 3.527,-3.461 6.493,-5.1289 13,-10.24217 19.578,-15.26171 1.633,-1.25 3.442,-2.32031 5.305,-3.187496 2.797,-1.300782 5.641,-1.152344 8.289,0.527346 4.942,3.15234 8.996,7.30078 12.863,11.62106 5.29,5.9102 9.559,12.4805 11.958,20.1211 0.738,2.3399 1.093,4.8086 1.628,7.2305 -0.445,2.5 -0.582,5.0273 -1.355,7.3398 -3.391,10.1407 -9.621,18.2579 -18.332,24.3789" /><path
         id="path90"
         style="fill:#040606;fill-opacity:1;fill-rule:nonzero;stroke:none"
         d="m 257.863,528.27 c 3.008,-1.711 6.489,-1.071 9.586,0.429 1.473,0.723 2.895,1.66 4.106,2.762 9.707,8.809 16.57,19.437 20.468,32 1.399,4.519 1.403,8.848 0.075,13.391 -1.2,4.078 -3.145,7.648 -5.883,10.796 -4.934,5.692 -10.781,10.274 -17.356,13.903 -4.093,2.25 -8.277,1.531 -11.222,-1.832 -1.086,-1.25 -2.227,-2.481 -3.078,-3.879 -6.684,-10.949 -13.325,-21.918 -19.922,-32.918 -0.844,-1.41 -1.555,-2.942 -2.043,-4.512 -0.617,-1.961 -0.938,-4 -1.137,-4.898 -0.074,-4.203 0.875,-6.883 3.043,-9.024 6.844,-6.769 15.109,-11.527 23.363,-16.218" /><path
         id="path92"
         style="fill:#040606;fill-opacity:1;fill-rule:nonzero;stroke:none"
         d="m 1167.42,529.43 c 4.16,-3.098 8.77,-2.891 12.65,0.121 7.26,5.609 13.58,12.09 18.5,19.89 2.9,4.618 4.9,9.559 5.89,14.911 0.23,1.207 0.34,2.437 0.45,3.25 -0.1,0.839 -0.13,1.25 -0.2,1.668 -2.56,13.82 -9.86,24.39 -22.02,31.429 -6.93,4.012 -11.41,2.942 -15.72,-3.879 -8.19,-12.929 -16.14,-26.011 -24.18,-39.039 -0.44,-0.691 -0.75,-1.472 -1.09,-2.222 -0.9,-1.989 -0.24,-5.25 1.37,-6.938 0.29,-0.301 0.53,-0.652 0.85,-0.902 7.81,-6.117 15.54,-12.36 23.5,-18.289" /><path
         id="path94"
         style="fill:#040606;fill-opacity:1;fill-rule:nonzero;stroke:none"
         d="m 1502.18,2513.56 c 0,-0.01 0,-0.01 0,-0.02 1.85,-1.65 3.65,-3.36 5.55,-4.96 36.36,-30.46 70.22,-63.44 100.88,-99.67 66.39,-78.48 113.81,-167.01 141.43,-266.08 8.25,-29.6 14.7,-59.57 19.18,-89.98 2.06,-13.96 3.8,-27.94 5.24,-41.98 2.17,-21.08 3.27,-42.22 3.76,-63.38 0.63,-27.01 -1.27,-53.9 -3.82,-80.79 -1.91,-20.27 -4.83,-40.39 -8.7,-60.34 -10.23,-52.73 -26.33,-103.64 -48.1,-152.77 -19.38,-43.74 -42.73,-85.28 -69.37,-125 -2.53,-3.78 -4.86,-7.7 -7.28,-11.55 -1,-0.33 -1.37,-0.96 -0.98,-1.83 0.13,-0.28 0.52,-0.6 0.83,-0.64 1.81,-0.27 3.1,0.47 3.87,2.12 1.49,0.72 3.03,1.34 4.44,2.17 13.97,8.2 27.37,17.25 40.33,26.95 43.53,32.6 80.88,71.24 112.65,115.3 42.2,58.53 72.28,122.7 89.34,192.9 4.22,17.33 7.63,34.8 10.12,52.47 1.73,12.34 3.23,24.69 4.04,37.09 0.77,11.59 1.24,23.23 1.14,34.83 -0.16,17.01 -0.3,34.06 -1.64,51 -1.66,21.06 -4.73,41.99 -8.75,62.79 -8.72,45 -22.45,88.34 -41.89,129.84 -41.42,88.42 -102.71,160.18 -182.32,216.4 -43.64,30.8 -90.78,54.84 -141.71,71.2 -8.27,2.66 -16.47,5.66 -25.15,6.83 -1.41,1.66 -3.28,2.21 -5.35,1.97 -0.62,-0.07 -1.64,-0.66 -1.67,-1.08 -0.05,-0.65 0.42,-1.55 0.95,-2.01 0.87,-0.74 1.97,-1.2 2.98,-1.78" /></g></g></svg>